<?xml version="1.0" encoding="UTF-8" standalone="no"?>
<svg
   xmlns:dc="http://purl.org/dc/elements/1.1/"
   xmlns:cc="http://creativecommons.org/ns#"
   xmlns:rdf="http://www.w3.org/1999/02/22-rdf-syntax-ns#"
   xmlns:svg="http://www.w3.org/2000/svg"
   xmlns="http://www.w3.org/2000/svg"
   id="svg51"

   viewBox="200 300 620 160"
   y="0px"
   x="0px"
   version="1.1"><metadata
     id="metadata57"><rdf:RDF><cc:Work
         rdf:about=""><dc:format>image/svg+xml</dc:format><dc:type
           rdf:resource="http://purl.org/dc/dcmitype/StillImage" /></cc:Work></rdf:RDF></metadata><defs
     id="defs55" /><g
     style="stroke-miterlimit:2"

     stroke-miterlimit="2"
     id="logo-group"><path
       d="m 216.71,420.81 h 2.16 v -7.632 h 7.656 v -1.8 h -9.816 z m 0,-17.04 v 5.448 h 2.16 v -3.528 h 9.096 v -1.92 z"
       style="font-variant-ligatures:none;fill:#9c8b49;stroke-width:0"
       id="path293965" /><path
       d="m 234.14,420.81 h 2.112 v -12.528 h -2.112 z m 0,-14.88 h 2.112 v -2.64 h -2.112 z"
       style="font-variant-ligatures:none;fill:#9c8b49;stroke-width:0"
       id="path293967" /><path
       d="m 254.29,420.81 v -7.488 c 0,-0.744 -0.072,-1.44 -0.192,-2.088 -0.12,-0.624 -0.312,-1.176 -0.6,-1.656 -0.288,-0.48 -0.672,-0.84 -1.152,-1.104 -0.48,-0.264 -1.08,-0.408 -1.8,-0.408 -1.104,0 -2.136,0.264 -3.072,0.792 -0.936,0.528 -1.656,1.248 -2.136,2.112 v -2.688 h -1.92 v 12.528 h 2.112 v -7.56 c 0.144,-0.48 0.36,-0.912 0.648,-1.32 0.288,-0.384 0.624,-0.744 1.008,-1.032 0.384,-0.288 0.792,-0.504 1.224,-0.672 0.432,-0.168 0.864,-0.264 1.296,-0.264 0.816,0 1.44,0.312 1.848,0.912 0.408,0.624 0.624,1.584 0.624,2.928 v 7.008 z"
       style="font-variant-ligatures:none;fill:#9c8b49;stroke-width:0"
       id="path293969" /><path
       d="m 264.54,421.05 c 0.96,0 1.872,-0.192 2.736,-0.576 0.864,-0.384 1.56,-0.96 2.136,-1.728 l 0.048,0.888 c 0.048,0.36 0.192,0.672 0.432,0.912 0.24,0.24 0.576,0.36 1.008,0.36 0.144,0 0.312,0 0.456,-0.024 0.144,0 0.312,-0.024 0.552,-0.072 v -1.824 c -0.456,0 -0.672,-0.264 -0.672,-0.768 v -5.112 c 0,-1.584 -0.48,-2.832 -1.392,-3.72 -0.912,-0.864 -2.208,-1.32 -3.84,-1.32 -1.632,0 -3.264,0.552 -4.872,1.632 l 0.696,1.368 c 1.392,-0.96 2.712,-1.464 3.984,-1.464 1.056,0 1.872,0.312 2.448,0.888 0.576,0.576 0.864,1.392 0.864,2.4 v 1.008 c -0.48,-0.192 -1.032,-0.336 -1.656,-0.456 -0.624,-0.096 -1.248,-0.168 -1.848,-0.168 -0.768,0 -1.488,0.096 -2.136,0.288 -0.648,0.192 -1.2,0.456 -1.68,0.792 -0.48,0.336 -0.84,0.744 -1.08,1.224 -0.264,0.48 -0.384,0.984 -0.384,1.56 0,0.576 0.096,1.08 0.312,1.56 0.216,0.48 0.504,0.888 0.888,1.224 0.384,0.36 0.816,0.648 1.344,0.84 0.504,0.192 1.056,0.288 1.656,0.288 z m 0.552,-1.584 c -0.384,0 -0.744,-0.048 -1.08,-0.192 -0.336,-0.12 -0.648,-0.288 -0.888,-0.528 -0.24,-0.216 -0.432,-0.48 -0.576,-0.792 -0.144,-0.288 -0.192,-0.624 -0.192,-0.984 0,-0.72 0.312,-1.296 0.984,-1.752 0.672,-0.432 1.536,-0.672 2.592,-0.672 1.104,0 2.16,0.216 3.192,0.6 v 1.848 c 0,0.336 -0.168,0.648 -0.456,0.936 -0.336,0.48 -0.84,0.84 -1.488,1.128 -0.648,0.288 -1.344,0.408 -2.088,0.408 z"
       style="font-variant-ligatures:none;fill:#9c8b49;stroke-width:0"
       id="path293971" /><path
       d="m 289.26,420.81 v -7.488 c 0,-0.744 -0.072,-1.44 -0.192,-2.088 -0.12,-0.624 -0.312,-1.176 -0.6,-1.656 -0.288,-0.48 -0.672,-0.84 -1.152,-1.104 -0.48,-0.264 -1.08,-0.408 -1.8,-0.408 -1.104,0 -2.136,0.264 -3.072,0.792 -0.936,0.528 -1.656,1.248 -2.136,2.112 v -2.688 h -1.92 v 12.528 h 2.112 v -7.56 c 0.144,-0.48 0.36,-0.912 0.648,-1.32 0.288,-0.384 0.624,-0.744 1.008,-1.032 0.384,-0.288 0.792,-0.504 1.224,-0.672 0.432,-0.168 0.864,-0.264 1.296,-0.264 0.816,0 1.44,0.312 1.848,0.912 0.408,0.624 0.624,1.584 0.624,2.928 v 7.008 z"
       style="font-variant-ligatures:none;fill:#9c8b49;stroke-width:0"
       id="path293973" /><path
       d="m 295.45,414.52 c 0,0.888 0.144,1.728 0.456,2.52 0.312,0.792 0.744,1.488 1.32,2.064 0.552,0.6 1.224,1.08 2.016,1.416 0.768,0.36 1.632,0.528 2.592,0.528 0.624,0 1.2,-0.072 1.776,-0.24 0.576,-0.144 1.08,-0.36 1.56,-0.648 0.456,-0.264 0.864,-0.6 1.2,-0.984 0.336,-0.384 0.624,-0.792 0.816,-1.272 l -2.064,-0.624 c -0.096,0.288 -0.264,0.528 -0.48,0.768 -0.24,0.24 -0.504,0.432 -0.792,0.6 -0.288,0.192 -0.624,0.336 -0.984,0.432 -0.36,0.096 -0.72,0.144 -1.08,0.144 -0.576,0 -1.128,-0.12 -1.632,-0.36 -0.504,-0.24 -0.936,-0.552 -1.32,-0.984 -0.384,-0.432 -0.672,-0.936 -0.888,-1.512 -0.24,-0.576 -0.336,-1.176 -0.336,-1.848 0,-0.672 0.096,-1.272 0.312,-1.848 0.216,-0.552 0.504,-1.032 0.888,-1.464 0.36,-0.408 0.792,-0.72 1.32,-0.96 0.504,-0.24 1.056,-0.36 1.632,-0.36 0.696,0 1.344,0.168 1.92,0.504 0.576,0.336 1.008,0.792 1.344,1.368 l 2.064,-0.648 c -0.48,-0.912 -1.152,-1.656 -2.064,-2.208 -0.912,-0.552 -1.968,-0.84 -3.216,-0.84 -0.96,0 -1.848,0.192 -2.616,0.528 -0.768,0.336 -1.44,0.816 -1.992,1.392 -0.576,0.576 -1.008,1.272 -1.296,2.04 -0.312,0.792 -0.456,1.632 -0.456,2.496 z"
       style="font-variant-ligatures:none;fill:#9c8b49;stroke-width:0"
       id="path293975" /><path
       d="m 318.76,421.05 c 0.624,0 1.224,-0.072 1.8,-0.24 0.576,-0.144 1.08,-0.36 1.56,-0.648 0.48,-0.288 0.888,-0.624 1.248,-1.008 0.36,-0.384 0.648,-0.792 0.864,-1.272 l -1.824,-0.504 c -0.144,0.336 -0.336,0.624 -0.576,0.864 -0.24,0.264 -0.528,0.48 -0.84,0.648 -0.336,0.192 -0.672,0.336 -1.032,0.432 -0.384,0.096 -0.744,0.144 -1.128,0.144 -0.552,0 -1.08,-0.096 -1.56,-0.312 -0.48,-0.192 -0.912,-0.48 -1.296,-0.864 -0.384,-0.36 -0.696,-0.792 -0.936,-1.32 -0.24,-0.504 -0.384,-1.08 -0.432,-1.704 H 325 c 0,-0.072 0.024,-0.192 0.024,-0.336 0,-0.144 0.024,-0.288 0.024,-0.48 0,-0.816 -0.168,-1.632 -0.456,-2.4 -0.288,-0.768 -0.72,-1.464 -1.248,-2.04 -0.552,-0.576 -1.224,-1.056 -1.992,-1.416 -0.768,-0.336 -1.632,-0.528 -2.568,-0.528 -0.96,0 -1.824,0.192 -2.592,0.528 -0.792,0.336 -1.464,0.816 -2.04,1.392 -0.576,0.6 -1.008,1.296 -1.32,2.064 -0.312,0.792 -0.456,1.632 -0.456,2.496 0,0.888 0.144,1.728 0.456,2.52 0.312,0.792 0.744,1.488 1.32,2.064 0.552,0.6 1.224,1.08 2.016,1.416 0.768,0.336 1.632,0.504 2.592,0.504 z m 4.296,-7.344 h -8.496 c 0.048,-0.576 0.168,-1.128 0.408,-1.632 0.24,-0.48 0.528,-0.912 0.912,-1.272 0.384,-0.36 0.816,-0.648 1.32,-0.84 0.48,-0.192 1.008,-0.312 1.584,-0.312 0.552,0 1.08,0.12 1.584,0.312 0.48,0.192 0.912,0.48 1.296,0.816 0.384,0.36 0.696,0.792 0.936,1.296 0.24,0.504 0.408,1.056 0.456,1.632 z"
       style="font-variant-ligatures:none;fill:#9c8b49;stroke-width:0"
       id="path293977" /><path
       d="m 331,420.81 h 1.776 v -2.688 H 331 Z"
       style="font-variant-ligatures:none;fill:#9c8b49;stroke-width:0"
       id="path293979" /><path
       d="m 353.37,406.1 -0.936,2.544 2.16,5.496 h -4.272 l -0.648,1.68 h 5.4 l 2.016,4.992 h 2.304 z m -0.936,-2.328 h -1.824 l -6.984,17.04 h 2.208 l 5.688,-14.544 z"
       style="font-variant-ligatures:none;fill:#9c8b49;stroke-width:0"
       id="path293981" /><path
       d="m 363.89,414.52 c 0,0.888 0.144,1.728 0.456,2.52 0.312,0.792 0.744,1.488 1.32,2.064 0.552,0.6 1.224,1.08 2.016,1.416 0.768,0.36 1.632,0.528 2.592,0.528 0.624,0 1.2,-0.072 1.776,-0.24 0.576,-0.144 1.08,-0.36 1.56,-0.648 0.456,-0.264 0.864,-0.6 1.2,-0.984 0.336,-0.384 0.624,-0.792 0.816,-1.272 l -2.064,-0.624 c -0.096,0.288 -0.264,0.528 -0.48,0.768 -0.24,0.24 -0.504,0.432 -0.792,0.6 -0.288,0.192 -0.624,0.336 -0.984,0.432 -0.36,0.096 -0.72,0.144 -1.08,0.144 -0.576,0 -1.128,-0.12 -1.632,-0.36 -0.504,-0.24 -0.936,-0.552 -1.32,-0.984 -0.384,-0.432 -0.672,-0.936 -0.888,-1.512 -0.24,-0.576 -0.336,-1.176 -0.336,-1.848 0,-0.672 0.096,-1.272 0.312,-1.848 0.216,-0.552 0.504,-1.032 0.888,-1.464 0.36,-0.408 0.792,-0.72 1.32,-0.96 0.504,-0.24 1.056,-0.36 1.632,-0.36 0.696,0 1.344,0.168 1.92,0.504 0.576,0.336 1.008,0.792 1.344,1.368 l 2.064,-0.648 c -0.48,-0.912 -1.152,-1.656 -2.064,-2.208 -0.912,-0.552 -1.968,-0.84 -3.216,-0.84 -0.96,0 -1.848,0.192 -2.616,0.528 -0.768,0.336 -1.44,0.816 -1.992,1.392 -0.576,0.576 -1.008,1.272 -1.296,2.04 -0.312,0.792 -0.456,1.632 -0.456,2.496 z"
       style="font-variant-ligatures:none;fill:#9c8b49;stroke-width:0"
       id="path293983" /><path
       d="m 380.81,414.52 c 0,0.888 0.144,1.728 0.456,2.52 0.312,0.792 0.744,1.488 1.32,2.064 0.552,0.6 1.224,1.08 2.016,1.416 0.768,0.36 1.632,0.528 2.592,0.528 0.624,0 1.2,-0.072 1.776,-0.24 0.576,-0.144 1.08,-0.36 1.56,-0.648 0.456,-0.264 0.864,-0.6 1.2,-0.984 0.336,-0.384 0.624,-0.792 0.816,-1.272 l -2.064,-0.624 c -0.096,0.288 -0.264,0.528 -0.48,0.768 -0.24,0.24 -0.504,0.432 -0.792,0.6 -0.288,0.192 -0.624,0.336 -0.984,0.432 -0.36,0.096 -0.72,0.144 -1.08,0.144 -0.576,0 -1.128,-0.12 -1.632,-0.36 -0.504,-0.24 -0.936,-0.552 -1.32,-0.984 -0.384,-0.432 -0.672,-0.936 -0.888,-1.512 -0.24,-0.576 -0.336,-1.176 -0.336,-1.848 0,-0.672 0.096,-1.272 0.312,-1.848 0.216,-0.552 0.504,-1.032 0.888,-1.464 0.36,-0.408 0.792,-0.72 1.32,-0.96 0.504,-0.24 1.056,-0.36 1.632,-0.36 0.696,0 1.344,0.168 1.92,0.504 0.576,0.336 1.008,0.792 1.344,1.368 l 2.064,-0.648 c -0.48,-0.912 -1.152,-1.656 -2.064,-2.208 -0.912,-0.552 -1.968,-0.84 -3.216,-0.84 -0.96,0 -1.848,0.192 -2.616,0.528 -0.768,0.336 -1.44,0.816 -1.992,1.392 -0.576,0.576 -1.008,1.272 -1.296,2.04 -0.312,0.792 -0.456,1.632 -0.456,2.496 z"
       style="font-variant-ligatures:none;fill:#9c8b49;stroke-width:0"
       id="path293985" /><path
       d="m 404.05,421.05 c 0.936,0 1.8,-0.168 2.568,-0.528 0.768,-0.336 1.44,-0.816 2.016,-1.416 0.552,-0.576 0.984,-1.272 1.296,-2.064 0.288,-0.768 0.456,-1.608 0.456,-2.472 0,-0.864 -0.168,-1.704 -0.48,-2.496 -0.312,-0.768 -0.744,-1.464 -1.296,-2.064 -0.552,-0.576 -1.224,-1.056 -1.992,-1.416 -0.792,-0.336 -1.656,-0.528 -2.568,-0.528 -0.936,0 -1.8,0.192 -2.568,0.528 -0.768,0.36 -1.44,0.84 -1.992,1.416 -0.552,0.6 -0.984,1.296 -1.296,2.064 -0.312,0.792 -0.456,1.632 -0.456,2.496 0,0.864 0.144,1.704 0.456,2.472 0.288,0.792 0.72,1.488 1.272,2.064 0.552,0.6 1.224,1.08 1.992,1.416 0.768,0.36 1.632,0.528 2.592,0.528 z m -4.152,-6.456 c 0,-0.648 0.096,-1.248 0.312,-1.824 0.216,-0.576 0.504,-1.056 0.888,-1.488 0.384,-0.432 0.816,-0.768 1.32,-1.008 0.504,-0.24 1.056,-0.384 1.632,-0.384 0.576,0 1.104,0.12 1.608,0.36 0.504,0.24 0.96,0.576 1.344,1.008 0.384,0.432 0.672,0.912 0.888,1.488 0.216,0.576 0.336,1.176 0.336,1.8 0,0.672 -0.12,1.272 -0.336,1.848 -0.216,0.576 -0.504,1.056 -0.888,1.488 -0.384,0.432 -0.84,0.744 -1.344,0.984 -0.504,0.24 -1.032,0.36 -1.608,0.36 -0.576,0 -1.128,-0.12 -1.632,-0.36 -0.504,-0.24 -0.936,-0.552 -1.32,-0.984 -0.384,-0.408 -0.672,-0.888 -0.888,-1.464 -0.216,-0.552 -0.312,-1.152 -0.312,-1.824 z"
       style="font-variant-ligatures:none;fill:#9c8b49;stroke-width:0"
       id="path293987" /><path
       d="m 420.58,421.05 c 1.08,0 2.088,-0.24 3,-0.744 0.912,-0.504 1.632,-1.224 2.208,-2.184 l 0.048,1.464 c 0,0.384 0.144,0.696 0.432,0.936 0.288,0.24 0.624,0.36 1.056,0.36 h 0.384 c 0.144,0 0.336,-0.024 0.576,-0.072 v -1.824 c -0.456,0 -0.672,-0.264 -0.672,-0.768 v -9.936 H 425.5 v 7.848 c -0.384,0.96 -0.936,1.728 -1.704,2.28 -0.768,0.552 -1.56,0.816 -2.424,0.816 -1.776,0 -2.664,-1.272 -2.664,-3.84 v -7.104 h -2.112 v 7.512 c 0,1.752 0.336,3.072 1.008,3.936 0.672,0.888 1.656,1.32 2.976,1.32 z"
       style="font-variant-ligatures:none;fill:#9c8b49;stroke-width:0"
       id="path293989" /><path
       d="m 445.78,420.81 v -7.488 c 0,-0.744 -0.072,-1.44 -0.192,-2.088 -0.12,-0.624 -0.312,-1.176 -0.6,-1.656 -0.288,-0.48 -0.672,-0.84 -1.152,-1.104 -0.48,-0.264 -1.08,-0.408 -1.8,-0.408 -1.104,0 -2.136,0.264 -3.072,0.792 -0.936,0.528 -1.656,1.248 -2.136,2.112 v -2.688 h -1.92 v 12.528 h 2.112 v -7.56 c 0.144,-0.48 0.36,-0.912 0.648,-1.32 0.288,-0.384 0.624,-0.744 1.008,-1.032 0.384,-0.288 0.792,-0.504 1.224,-0.672 0.432,-0.168 0.864,-0.264 1.296,-0.264 0.816,0 1.44,0.312 1.848,0.912 0.408,0.624 0.624,1.584 0.624,2.928 v 7.008 z"
       style="font-variant-ligatures:none;fill:#9c8b49;stroke-width:0"
       id="path293991" /><path
       d="m 459.15,420.18 -0.504,-1.68 c -0.144,0.096 -0.384,0.192 -0.72,0.336 -0.336,0.144 -0.72,0.192 -1.128,0.192 -0.384,0 -0.696,-0.096 -0.96,-0.312 -0.288,-0.192 -0.432,-0.528 -0.456,-1.008 v -7.776 h 2.808 v -1.656 h -2.808 V 404.1 h -2.112 v 4.176 h -1.704 v 1.656 h 1.704 v 8.424 c 0,0.912 0.264,1.56 0.84,1.992 0.552,0.432 1.224,0.624 1.992,0.624 0.336,0 0.648,-0.024 0.96,-0.072 0.312,-0.048 0.6,-0.12 0.864,-0.216 0.264,-0.096 0.504,-0.168 0.72,-0.264 0.192,-0.096 0.36,-0.168 0.504,-0.24 z"
       style="font-variant-ligatures:none;fill:#9c8b49;stroke-width:0"
       id="path293993" /><path
       d="m 464.86,420.81 h 2.112 v -12.528 h -2.112 z m 0,-14.88 h 2.112 v -2.64 h -2.112 z"
       style="font-variant-ligatures:none;fill:#9c8b49;stroke-width:0"
       id="path293995" /><path
       d="m 485.01,420.81 v -7.488 c 0,-0.744 -0.072,-1.44 -0.192,-2.088 -0.12,-0.624 -0.312,-1.176 -0.6,-1.656 -0.288,-0.48 -0.672,-0.84 -1.152,-1.104 -0.48,-0.264 -1.08,-0.408 -1.8,-0.408 -1.104,0 -2.136,0.264 -3.072,0.792 -0.936,0.528 -1.656,1.248 -2.136,2.112 v -2.688 h -1.92 v 12.528 h 2.112 v -7.56 c 0.144,-0.48 0.36,-0.912 0.648,-1.32 0.288,-0.384 0.624,-0.744 1.008,-1.032 0.384,-0.288 0.792,-0.504 1.224,-0.672 0.432,-0.168 0.864,-0.264 1.296,-0.264 0.816,0 1.44,0.312 1.848,0.912 0.408,0.624 0.624,1.584 0.624,2.928 v 7.008 z"
       style="font-variant-ligatures:none;fill:#9c8b49;stroke-width:0"
       id="path293997" /><path
       d="m 497.04,420.95 c 0.432,0 0.888,-0.048 1.32,-0.168 0.432,-0.096 0.84,-0.264 1.224,-0.48 0.384,-0.216 0.72,-0.48 1.056,-0.792 0.336,-0.312 0.624,-0.672 0.864,-1.056 v 2.208 c 0,0.672 -0.12,1.224 -0.36,1.704 -0.24,0.48 -0.528,0.888 -0.912,1.2 -0.384,0.336 -0.84,0.576 -1.368,0.72 -0.528,0.168 -1.056,0.24 -1.632,0.24 -0.912,0 -1.776,-0.168 -2.544,-0.552 -0.792,-0.36 -1.44,-0.912 -1.92,-1.656 l -1.224,1.08 c 0.576,0.864 1.32,1.56 2.208,2.04 0.888,0.48 2.04,0.72 3.48,0.72 0.864,0 1.704,-0.12 2.472,-0.36 0.768,-0.24 1.464,-0.576 2.04,-1.056 0.576,-0.456 1.032,-1.032 1.368,-1.704 0.336,-0.672 0.504,-1.464 0.504,-2.376 v -12.384 h -1.872 v 2.496 c -0.528,-0.768 -1.176,-1.416 -1.944,-1.944 -0.768,-0.504 -1.68,-0.768 -2.736,-0.768 -0.864,0 -1.656,0.192 -2.376,0.528 -0.72,0.336 -1.32,0.816 -1.824,1.392 -0.528,0.6 -0.912,1.296 -1.2,2.088 -0.288,0.792 -0.408,1.632 -0.408,2.496 0,0.84 0.12,1.632 0.408,2.4 0.288,0.768 0.672,1.464 1.2,2.04 0.504,0.6 1.104,1.08 1.824,1.416 0.72,0.36 1.488,0.528 2.352,0.528 z m 0.648,-1.728 c -0.624,0 -1.176,-0.12 -1.704,-0.36 -0.528,-0.24 -0.96,-0.576 -1.344,-1.008 -0.384,-0.408 -0.696,-0.888 -0.912,-1.464 -0.24,-0.552 -0.336,-1.152 -0.336,-1.776 0,-0.576 0.096,-1.128 0.288,-1.704 0.192,-0.576 0.456,-1.08 0.816,-1.536 0.336,-0.432 0.768,-0.792 1.272,-1.08 0.504,-0.264 1.08,-0.408 1.728,-0.408 0.408,0 0.816,0.072 1.224,0.216 0.408,0.144 0.792,0.36 1.152,0.624 0.336,0.264 0.648,0.576 0.936,0.912 0.288,0.36 0.504,0.744 0.696,1.176 v 3.6 c -0.096,0.36 -0.24,0.696 -0.48,1.032 -0.24,0.336 -0.552,0.648 -0.888,0.912 -0.36,0.264 -0.744,0.48 -1.152,0.624 -0.432,0.168 -0.864,0.24 -1.296,0.24 z"
       style="font-variant-ligatures:none;fill:#9c8b49;stroke-width:0"
       id="path293999" /><path
       d="m 510.58,420.81 h 1.776 v -2.688 h -1.776 z"
       style="font-variant-ligatures:none;fill:#9c8b49;stroke-width:0"
       id="path294001" /><path
       d="m 534.63,414.28 c 0.528,-0.12 1.032,-0.36 1.464,-0.696 0.432,-0.312 0.816,-0.696 1.128,-1.152 0.312,-0.432 0.552,-0.936 0.72,-1.488 0.168,-0.552 0.264,-1.128 0.264,-1.728 0,-0.672 -0.144,-1.32 -0.384,-1.968 -0.264,-0.648 -0.624,-1.224 -1.08,-1.752 -0.456,-0.528 -1.008,-0.936 -1.632,-1.248 -0.624,-0.312 -1.32,-0.48 -2.064,-0.48 h -7.296 v 17.04 h 2.16 v -6.12 h 2.16 l -1.2,-1.92 h -0.96 v -7.08 h 5.016 c 0.408,0 0.792,0.096 1.176,0.288 0.384,0.192 0.696,0.432 0.984,0.768 0.288,0.336 0.504,0.696 0.672,1.128 0.168,0.432 0.264,0.888 0.264,1.344 0,0.48 -0.072,0.912 -0.216,1.344 -0.168,0.456 -0.36,0.816 -0.6,1.152 -0.264,0.336 -0.576,0.6 -0.936,0.768 -0.36,0.192 -0.768,0.288 -1.2,0.288 h -1.896 l 1.248,1.92 3.888,6.12 h 2.448 z"
       style="font-variant-ligatures:none;fill:#9c8b49;stroke-width:0"
       id="path294003" /><path
       d="m 550.04,421.05 c 0.624,0 1.224,-0.072 1.8,-0.24 0.576,-0.144 1.08,-0.36 1.56,-0.648 0.48,-0.288 0.888,-0.624 1.248,-1.008 0.36,-0.384 0.648,-0.792 0.864,-1.272 l -1.824,-0.504 c -0.144,0.336 -0.336,0.624 -0.576,0.864 -0.24,0.264 -0.528,0.48 -0.84,0.648 -0.336,0.192 -0.672,0.336 -1.032,0.432 -0.384,0.096 -0.744,0.144 -1.128,0.144 -0.552,0 -1.08,-0.096 -1.56,-0.312 -0.48,-0.192 -0.912,-0.48 -1.296,-0.864 -0.384,-0.36 -0.696,-0.792 -0.936,-1.32 -0.24,-0.504 -0.384,-1.08 -0.432,-1.704 h 10.392 c 0,-0.072 0.024,-0.192 0.024,-0.336 0,-0.144 0.024,-0.288 0.024,-0.48 0,-0.816 -0.168,-1.632 -0.456,-2.4 -0.288,-0.768 -0.72,-1.464 -1.248,-2.04 -0.552,-0.576 -1.224,-1.056 -1.992,-1.416 -0.768,-0.336 -1.632,-0.528 -2.568,-0.528 -0.96,0 -1.824,0.192 -2.592,0.528 -0.792,0.336 -1.464,0.816 -2.04,1.392 -0.576,0.6 -1.008,1.296 -1.32,2.064 -0.312,0.792 -0.456,1.632 -0.456,2.496 0,0.888 0.144,1.728 0.456,2.52 0.312,0.792 0.744,1.488 1.32,2.064 0.552,0.6 1.224,1.08 2.016,1.416 0.768,0.336 1.632,0.504 2.592,0.504 z m 4.296,-7.344 h -8.496 c 0.048,-0.576 0.168,-1.128 0.408,-1.632 0.24,-0.48 0.528,-0.912 0.912,-1.272 0.384,-0.36 0.816,-0.648 1.32,-0.84 0.48,-0.192 1.008,-0.312 1.584,-0.312 0.552,0 1.08,0.12 1.584,0.312 0.48,0.192 0.912,0.48 1.296,0.816 0.384,0.36 0.696,0.792 0.936,1.296 0.24,0.504 0.408,1.056 0.456,1.632 z"
       style="font-variant-ligatures:none;fill:#9c8b49;stroke-width:0"
       id="path294005" /><path
       d="m 566.84,421.05 c 1.512,0 2.712,-0.336 3.624,-1.032 0.888,-0.672 1.344,-1.608 1.344,-2.784 0,-0.528 -0.12,-0.96 -0.312,-1.344 -0.192,-0.36 -0.504,-0.672 -0.912,-0.96 -0.408,-0.264 -0.912,-0.504 -1.536,-0.696 -0.624,-0.192 -1.344,-0.408 -2.16,-0.6 -0.528,-0.12 -0.984,-0.24 -1.368,-0.36 -0.384,-0.096 -0.672,-0.24 -0.912,-0.384 -0.24,-0.144 -0.432,-0.312 -0.528,-0.504 -0.096,-0.192 -0.144,-0.432 -0.144,-0.72 0,-0.72 0.264,-1.224 0.792,-1.56 0.528,-0.336 1.2,-0.504 1.968,-0.504 0.672,0 1.344,0.12 2.016,0.36 0.648,0.24 1.248,0.576 1.776,1.032 l 0.96,-1.272 c -0.576,-0.48 -1.248,-0.888 -2.064,-1.2 -0.816,-0.288 -1.704,-0.456 -2.64,-0.456 -0.672,0 -1.32,0.096 -1.896,0.264 -0.576,0.168 -1.08,0.408 -1.512,0.744 -0.432,0.336 -0.792,0.744 -1.032,1.224 -0.24,0.48 -0.36,1.032 -0.36,1.656 0,0.504 0.072,0.912 0.24,1.248 0.144,0.336 0.408,0.624 0.768,0.864 0.336,0.24 0.792,0.456 1.344,0.624 0.528,0.192 1.176,0.36 1.944,0.552 0.576,0.144 1.104,0.288 1.56,0.408 0.432,0.144 0.816,0.288 1.104,0.432 0.288,0.168 0.504,0.36 0.648,0.576 0.144,0.216 0.216,0.48 0.216,0.768 0,0.672 -0.288,1.176 -0.816,1.536 -0.528,0.36 -1.248,0.528 -2.16,0.528 -0.816,0 -1.608,-0.12 -2.328,-0.408 -0.744,-0.288 -1.488,-0.696 -2.208,-1.272 l -0.912,1.416 c 0.696,0.6 1.536,1.056 2.52,1.368 0.96,0.312 1.968,0.456 2.976,0.456 z"
       style="font-variant-ligatures:none;fill:#9c8b49;stroke-width:0"
       id="path294007" /><path
       d="m 583.6,421.05 c 0.624,0 1.224,-0.072 1.8,-0.24 0.576,-0.144 1.08,-0.36 1.56,-0.648 0.48,-0.288 0.888,-0.624 1.248,-1.008 0.36,-0.384 0.648,-0.792 0.864,-1.272 l -1.824,-0.504 c -0.144,0.336 -0.336,0.624 -0.576,0.864 -0.24,0.264 -0.528,0.48 -0.84,0.648 -0.336,0.192 -0.672,0.336 -1.032,0.432 -0.384,0.096 -0.744,0.144 -1.128,0.144 -0.552,0 -1.08,-0.096 -1.56,-0.312 -0.48,-0.192 -0.912,-0.48 -1.296,-0.864 -0.384,-0.36 -0.696,-0.792 -0.936,-1.32 -0.24,-0.504 -0.384,-1.08 -0.432,-1.704 h 10.392 c 0,-0.072 0.024,-0.192 0.024,-0.336 0,-0.144 0.024,-0.288 0.024,-0.48 0,-0.816 -0.168,-1.632 -0.456,-2.4 -0.288,-0.768 -0.72,-1.464 -1.248,-2.04 -0.552,-0.576 -1.224,-1.056 -1.992,-1.416 -0.768,-0.336 -1.632,-0.528 -2.568,-0.528 -0.96,0 -1.824,0.192 -2.592,0.528 -0.792,0.336 -1.464,0.816 -2.04,1.392 -0.576,0.6 -1.008,1.296 -1.32,2.064 -0.312,0.792 -0.456,1.632 -0.456,2.496 0,0.888 0.144,1.728 0.456,2.52 0.312,0.792 0.744,1.488 1.32,2.064 0.552,0.6 1.224,1.08 2.016,1.416 0.768,0.336 1.632,0.504 2.592,0.504 z m 4.296,-7.344 H 579.4 c 0.048,-0.576 0.168,-1.128 0.408,-1.632 0.24,-0.48 0.528,-0.912 0.912,-1.272 0.384,-0.36 0.816,-0.648 1.32,-0.84 0.48,-0.192 1.008,-0.312 1.584,-0.312 0.552,0 1.08,0.12 1.584,0.312 0.48,0.192 0.912,0.48 1.296,0.816 0.384,0.36 0.696,0.792 0.936,1.296 0.24,0.504 0.408,1.056 0.456,1.632 z"
       style="font-variant-ligatures:none;fill:#9c8b49;stroke-width:0"
       id="path294009" /><path
       d="m 599.23,421.05 c 0.96,0 1.872,-0.192 2.736,-0.576 0.864,-0.384 1.56,-0.96 2.136,-1.728 l 0.048,0.888 c 0.048,0.36 0.192,0.672 0.432,0.912 0.24,0.24 0.576,0.36 1.008,0.36 0.144,0 0.312,0 0.456,-0.024 0.144,0 0.312,-0.024 0.552,-0.072 v -1.824 c -0.456,0 -0.672,-0.264 -0.672,-0.768 v -5.112 c 0,-1.584 -0.48,-2.832 -1.392,-3.72 -0.912,-0.864 -2.208,-1.32 -3.84,-1.32 -1.632,0 -3.264,0.552 -4.872,1.632 l 0.696,1.368 c 1.392,-0.96 2.712,-1.464 3.984,-1.464 1.056,0 1.872,0.312 2.448,0.888 0.576,0.576 0.864,1.392 0.864,2.4 v 1.008 c -0.48,-0.192 -1.032,-0.336 -1.656,-0.456 -0.624,-0.096 -1.248,-0.168 -1.848,-0.168 -0.768,0 -1.488,0.096 -2.136,0.288 -0.648,0.192 -1.2,0.456 -1.68,0.792 -0.48,0.336 -0.84,0.744 -1.08,1.224 -0.264,0.48 -0.384,0.984 -0.384,1.56 0,0.576 0.096,1.08 0.312,1.56 0.216,0.48 0.504,0.888 0.888,1.224 0.384,0.36 0.816,0.648 1.344,0.84 0.504,0.192 1.056,0.288 1.656,0.288 z m 0.552,-1.584 c -0.384,0 -0.744,-0.048 -1.08,-0.192 -0.336,-0.12 -0.648,-0.288 -0.888,-0.528 -0.24,-0.216 -0.432,-0.48 -0.576,-0.792 -0.144,-0.288 -0.192,-0.624 -0.192,-0.984 0,-0.72 0.312,-1.296 0.984,-1.752 0.672,-0.432 1.536,-0.672 2.592,-0.672 1.104,0 2.16,0.216 3.192,0.6 v 1.848 c 0,0.336 -0.168,0.648 -0.456,0.936 -0.336,0.48 -0.84,0.84 -1.488,1.128 -0.648,0.288 -1.344,0.408 -2.088,0.408 z"
       style="font-variant-ligatures:none;fill:#9c8b49;stroke-width:0"
       id="path294011" /><path
       d="m 619.7,410.13 v -1.92 c -0.096,0 -0.192,-0.024 -0.288,-0.024 h -0.408 c -0.816,0.072 -1.56,0.384 -2.256,0.912 -0.72,0.528 -1.272,1.224 -1.704,2.088 v -2.904 h -1.968 v 12.528 h 2.112 v -7.728 c 0.336,-0.912 0.888,-1.608 1.704,-2.136 0.816,-0.504 1.752,-0.768 2.808,-0.816 z"
       style="font-variant-ligatures:none;fill:#9c8b49;stroke-width:0"
       id="path294013" /><path
       d="m 624.42,414.52 c 0,0.888 0.144,1.728 0.456,2.52 0.312,0.792 0.744,1.488 1.32,2.064 0.552,0.6 1.224,1.08 2.016,1.416 0.768,0.36 1.632,0.528 2.592,0.528 0.624,0 1.2,-0.072 1.776,-0.24 0.576,-0.144 1.08,-0.36 1.56,-0.648 0.456,-0.264 0.864,-0.6 1.2,-0.984 0.336,-0.384 0.624,-0.792 0.816,-1.272 l -2.064,-0.624 c -0.096,0.288 -0.264,0.528 -0.48,0.768 -0.24,0.24 -0.504,0.432 -0.792,0.6 -0.288,0.192 -0.624,0.336 -0.984,0.432 -0.36,0.096 -0.72,0.144 -1.08,0.144 -0.576,0 -1.128,-0.12 -1.632,-0.36 -0.504,-0.24 -0.936,-0.552 -1.32,-0.984 -0.384,-0.432 -0.672,-0.936 -0.888,-1.512 -0.24,-0.576 -0.336,-1.176 -0.336,-1.848 0,-0.672 0.096,-1.272 0.312,-1.848 0.216,-0.552 0.504,-1.032 0.888,-1.464 0.36,-0.408 0.792,-0.72 1.32,-0.96 0.504,-0.24 1.056,-0.36 1.632,-0.36 0.696,0 1.344,0.168 1.92,0.504 0.576,0.336 1.008,0.792 1.344,1.368 l 2.064,-0.648 c -0.48,-0.912 -1.152,-1.656 -2.064,-2.208 -0.912,-0.552 -1.968,-0.84 -3.216,-0.84 -0.96,0 -1.848,0.192 -2.616,0.528 -0.768,0.336 -1.44,0.816 -1.992,1.392 -0.576,0.576 -1.008,1.272 -1.296,2.04 -0.312,0.792 -0.456,1.632 -0.456,2.496 z"
       style="font-variant-ligatures:none;fill:#9c8b49;stroke-width:0"
       id="path294015" /><path
       d="m 653.2,420.81 v -7.488 c 0,-0.72 -0.072,-1.416 -0.216,-2.064 -0.144,-0.648 -0.36,-1.2 -0.648,-1.68 -0.312,-0.456 -0.72,-0.816 -1.224,-1.104 -0.528,-0.264 -1.152,-0.408 -1.872,-0.408 -1.008,0 -1.944,0.264 -2.784,0.768 -0.864,0.528 -1.536,1.224 -2.016,2.136 v -7.68 h -2.112 v 17.52 h 2.112 v -7.56 c 0.144,-0.48 0.336,-0.912 0.624,-1.32 0.288,-0.384 0.6,-0.744 0.96,-1.032 0.36,-0.288 0.744,-0.504 1.176,-0.672 0.408,-0.168 0.816,-0.264 1.248,-0.264 0.864,0 1.512,0.336 1.968,0.96 0.432,0.624 0.672,1.584 0.672,2.88 v 7.008 z"
       style="font-variant-ligatures:none;fill:#9c8b49;stroke-width:0"
       id="path294017" /><path
       d="m 660.06,420.81 h 1.776 v -2.688 h -1.776 z"
       style="font-variant-ligatures:none;fill:#9c8b49;stroke-width:0"
       id="path294019" /><path
       d="m 685.25,407.34 1.008,-1.752 c -0.72,-0.576 -1.56,-1.056 -2.472,-1.416 -0.936,-0.336 -1.968,-0.528 -3.12,-0.528 -0.888,0 -1.704,0.12 -2.448,0.336 -0.768,0.216 -1.416,0.528 -1.944,0.96 -0.552,0.432 -0.984,0.96 -1.272,1.584 -0.312,0.624 -0.456,1.344 -0.456,2.16 0,0.672 0.096,1.248 0.336,1.728 0.216,0.48 0.552,0.888 0.984,1.224 0.432,0.336 0.984,0.624 1.656,0.864 0.648,0.24 1.416,0.48 2.28,0.672 0.768,0.192 1.464,0.384 2.088,0.576 0.624,0.192 1.128,0.384 1.56,0.624 0.408,0.24 0.72,0.528 0.936,0.864 0.216,0.336 0.336,0.72 0.336,1.2 0,0.864 -0.336,1.512 -1.008,1.944 -0.672,0.432 -1.632,0.648 -2.832,0.648 -0.672,0 -1.296,-0.048 -1.896,-0.192 -0.6,-0.144 -1.152,-0.312 -1.68,-0.528 -0.528,-0.216 -0.984,-0.456 -1.392,-0.744 -0.408,-0.264 -0.744,-0.528 -0.984,-0.816 l -1.032,1.824 c 0.96,0.792 2.016,1.392 3.192,1.8 1.176,0.408 2.424,0.6 3.744,0.6 0.864,0 1.68,-0.072 2.448,-0.264 0.744,-0.192 1.392,-0.48 1.944,-0.864 0.552,-0.384 0.984,-0.888 1.32,-1.488 0.312,-0.6 0.48,-1.32 0.48,-2.136 0,-0.768 -0.144,-1.416 -0.408,-1.944 -0.264,-0.528 -0.648,-0.96 -1.152,-1.344 -0.504,-0.36 -1.104,-0.672 -1.824,-0.912 -0.72,-0.24 -1.512,-0.48 -2.376,-0.672 -0.768,-0.168 -1.44,-0.336 -1.992,-0.504 -0.576,-0.144 -1.032,-0.336 -1.416,-0.552 -0.384,-0.216 -0.648,-0.48 -0.816,-0.792 -0.192,-0.288 -0.264,-0.672 -0.264,-1.152 0,-0.864 0.288,-1.536 0.912,-2.04 0.624,-0.48 1.584,-0.744 2.928,-0.744 0.504,0 0.984,0.072 1.464,0.168 0.48,0.096 0.912,0.24 1.32,0.408 0.384,0.168 0.744,0.36 1.08,0.552 0.312,0.216 0.576,0.432 0.768,0.648 z"
       style="font-variant-ligatures:none;fill:#9c8b49;stroke-width:0"
       id="path294021" /><path
       d="m 698.75,421.05 c 0.936,0 1.8,-0.168 2.568,-0.528 0.768,-0.336 1.44,-0.816 2.016,-1.416 0.552,-0.576 0.984,-1.272 1.296,-2.064 0.288,-0.768 0.456,-1.608 0.456,-2.472 0,-0.864 -0.168,-1.704 -0.48,-2.496 -0.312,-0.768 -0.744,-1.464 -1.296,-2.064 -0.552,-0.576 -1.224,-1.056 -1.992,-1.416 -0.792,-0.336 -1.656,-0.528 -2.568,-0.528 -0.936,0 -1.8,0.192 -2.568,0.528 -0.768,0.36 -1.44,0.84 -1.992,1.416 -0.552,0.6 -0.984,1.296 -1.296,2.064 -0.312,0.792 -0.456,1.632 -0.456,2.496 0,0.864 0.144,1.704 0.456,2.472 0.288,0.792 0.72,1.488 1.272,2.064 0.552,0.6 1.224,1.08 1.992,1.416 0.768,0.36 1.632,0.528 2.592,0.528 z m -4.152,-6.456 c 0,-0.648 0.096,-1.248 0.312,-1.824 0.216,-0.576 0.504,-1.056 0.888,-1.488 0.384,-0.432 0.816,-0.768 1.32,-1.008 0.504,-0.24 1.056,-0.384 1.632,-0.384 0.576,0 1.104,0.12 1.608,0.36 0.504,0.24 0.96,0.576 1.344,1.008 0.384,0.432 0.672,0.912 0.888,1.488 0.216,0.576 0.336,1.176 0.336,1.8 0,0.672 -0.12,1.272 -0.336,1.848 -0.216,0.576 -0.504,1.056 -0.888,1.488 -0.384,0.432 -0.84,0.744 -1.344,0.984 -0.504,0.24 -1.032,0.36 -1.608,0.36 -0.576,0 -1.128,-0.12 -1.632,-0.36 -0.504,-0.24 -0.936,-0.552 -1.32,-0.984 -0.384,-0.408 -0.672,-0.888 -0.888,-1.464 -0.216,-0.552 -0.312,-1.152 -0.312,-1.824 z"
       style="font-variant-ligatures:none;fill:#9c8b49;stroke-width:0"
       id="path294023" /><path
       d="m 711.86,420.81 h 2.112 v -10.872 h 3.336 v -1.656 h -3.336 v -0.336 c 0,-1.008 0.168,-1.776 0.552,-2.304 0.36,-0.528 0.888,-0.792 1.608,-0.792 0.312,0 0.624,0.048 0.96,0.144 0.336,0.096 0.6,0.24 0.84,0.384 l 0.528,-1.56 c -0.384,-0.24 -0.816,-0.408 -1.296,-0.552 -0.48,-0.144 -0.984,-0.216 -1.464,-0.216 -1.2,0 -2.136,0.456 -2.808,1.32 -0.696,0.888 -1.032,2.112 -1.032,3.648 v 0.264 h -1.704 v 1.656 h 1.704 z"
       style="font-variant-ligatures:none;fill:#9c8b49;stroke-width:0"
       id="path294025" /><path
       d="m 729.66,420.18 -0.504,-1.68 c -0.144,0.096 -0.384,0.192 -0.72,0.336 -0.336,0.144 -0.72,0.192 -1.128,0.192 -0.384,0 -0.696,-0.096 -0.96,-0.312 -0.288,-0.192 -0.432,-0.528 -0.456,-1.008 v -7.776 h 2.808 v -1.656 h -2.808 V 404.1 h -2.112 v 4.176 h -1.704 v 1.656 h 1.704 v 8.424 c 0,0.912 0.264,1.56 0.84,1.992 0.552,0.432 1.224,0.624 1.992,0.624 0.336,0 0.648,-0.024 0.96,-0.072 0.312,-0.048 0.6,-0.12 0.864,-0.216 0.264,-0.096 0.504,-0.168 0.72,-0.264 0.192,-0.096 0.36,-0.168 0.504,-0.24 z"
       style="font-variant-ligatures:none;fill:#9c8b49;stroke-width:0"
       id="path294027" /><path
       d="m 751.07,408.28 -4.296,10.44 -2.112,-5.208 2.136,-5.208 h -1.752 l -1.536,4.008 -1.536,-4.008 h -1.752 l 2.16,5.208 -2.112,5.208 -4.32,-10.44 h -2.016 l 5.328,12.528 h 1.752 l 2.496,-6.12 2.52,6.12 h 1.752 l 5.328,-12.528 z"
       style="font-variant-ligatures:none;fill:#9c8b49;stroke-width:0"
       id="path294029" /><path
       d="m 761.7,421.05 c 0.96,0 1.872,-0.192 2.736,-0.576 0.864,-0.384 1.56,-0.96 2.136,-1.728 l 0.048,0.888 c 0.048,0.36 0.192,0.672 0.432,0.912 0.24,0.24 0.576,0.36 1.008,0.36 0.144,0 0.312,0 0.456,-0.024 0.144,0 0.312,-0.024 0.552,-0.072 v -1.824 c -0.456,0 -0.672,-0.264 -0.672,-0.768 v -5.112 c 0,-1.584 -0.48,-2.832 -1.392,-3.72 -0.912,-0.864 -2.208,-1.32 -3.84,-1.32 -1.632,0 -3.264,0.552 -4.872,1.632 l 0.696,1.368 c 1.392,-0.96 2.712,-1.464 3.984,-1.464 1.056,0 1.872,0.312 2.448,0.888 0.576,0.576 0.864,1.392 0.864,2.4 v 1.008 c -0.48,-0.192 -1.032,-0.336 -1.656,-0.456 -0.624,-0.096 -1.248,-0.168 -1.848,-0.168 -0.768,0 -1.488,0.096 -2.136,0.288 -0.648,0.192 -1.2,0.456 -1.68,0.792 -0.48,0.336 -0.84,0.744 -1.08,1.224 -0.264,0.48 -0.384,0.984 -0.384,1.56 0,0.576 0.096,1.08 0.312,1.56 0.216,0.48 0.504,0.888 0.888,1.224 0.384,0.36 0.816,0.648 1.344,0.84 0.504,0.192 1.056,0.288 1.656,0.288 z m 0.552,-1.584 c -0.384,0 -0.744,-0.048 -1.08,-0.192 -0.336,-0.12 -0.648,-0.288 -0.888,-0.528 -0.24,-0.216 -0.432,-0.48 -0.576,-0.792 -0.144,-0.288 -0.192,-0.624 -0.192,-0.984 0,-0.72 0.312,-1.296 0.984,-1.752 0.672,-0.432 1.536,-0.672 2.592,-0.672 1.104,0 2.16,0.216 3.192,0.6 v 1.848 c 0,0.336 -0.168,0.648 -0.456,0.936 -0.336,0.48 -0.84,0.84 -1.488,1.128 -0.648,0.288 -1.344,0.408 -2.088,0.408 z"
       style="font-variant-ligatures:none;fill:#9c8b49;stroke-width:0"
       id="path294031" /><path
       d="m 782.17,410.13 v -1.92 c -0.096,0 -0.192,-0.024 -0.288,-0.024 h -0.408 c -0.816,0.072 -1.56,0.384 -2.256,0.912 -0.72,0.528 -1.272,1.224 -1.704,2.088 v -2.904 h -1.968 v 12.528 h 2.112 v -7.728 c 0.336,-0.912 0.888,-1.608 1.704,-2.136 0.816,-0.504 1.752,-0.768 2.808,-0.816 z"
       style="font-variant-ligatures:none;fill:#9c8b49;stroke-width:0"
       id="path294033" /><path
       d="m 793.28,421.05 c 0.624,0 1.224,-0.072 1.8,-0.24 0.576,-0.144 1.08,-0.36 1.56,-0.648 0.48,-0.288 0.888,-0.624 1.248,-1.008 0.36,-0.384 0.648,-0.792 0.864,-1.272 l -1.824,-0.504 c -0.144,0.336 -0.336,0.624 -0.576,0.864 -0.24,0.264 -0.528,0.48 -0.84,0.648 -0.336,0.192 -0.672,0.336 -1.032,0.432 -0.384,0.096 -0.744,0.144 -1.128,0.144 -0.552,0 -1.08,-0.096 -1.56,-0.312 -0.48,-0.192 -0.912,-0.48 -1.296,-0.864 -0.384,-0.36 -0.696,-0.792 -0.936,-1.32 -0.24,-0.504 -0.384,-1.08 -0.432,-1.704 h 10.392 c 0,-0.072 0.024,-0.192 0.024,-0.336 0,-0.144 0.024,-0.288 0.024,-0.48 0,-0.816 -0.168,-1.632 -0.456,-2.4 -0.288,-0.768 -0.72,-1.464 -1.248,-2.04 -0.552,-0.576 -1.224,-1.056 -1.992,-1.416 -0.768,-0.336 -1.632,-0.528 -2.568,-0.528 -0.96,0 -1.824,0.192 -2.592,0.528 -0.792,0.336 -1.464,0.816 -2.04,1.392 -0.576,0.6 -1.008,1.296 -1.32,2.064 -0.312,0.792 -0.456,1.632 -0.456,2.496 0,0.888 0.144,1.728 0.456,2.52 0.312,0.792 0.744,1.488 1.32,2.064 0.552,0.6 1.224,1.08 2.016,1.416 0.768,0.336 1.632,0.504 2.592,0.504 z m 4.296,-7.344 h -8.496 c 0.048,-0.576 0.168,-1.128 0.408,-1.632 0.24,-0.48 0.528,-0.912 0.912,-1.272 0.384,-0.36 0.816,-0.648 1.32,-0.84 0.48,-0.192 1.008,-0.312 1.584,-0.312 0.552,0 1.08,0.12 1.584,0.312 0.48,0.192 0.912,0.48 1.296,0.816 0.384,0.36 0.696,0.792 0.936,1.296 0.24,0.504 0.408,1.056 0.456,1.632 z"
       style="font-variant-ligatures:none;fill:#9c8b49;stroke-width:0"
       id="path294035" /><path
       d="m 805.52,420.81 h 1.776 v -2.688 h -1.776 z"
       style="font-variant-ligatures:none;fill:#9c8b49;stroke-width:0"
       id="path294037" /><path
       d="m 342.44,342.13 h -2.9743 v 18.779 h -27.3 v -18.78 h -2.9743 v 40.824 h 2.9743 v -19.421 h 27.294 v 19.43 h 2.9743 z"
       style="font-variant-ligatures:none;fill:#f2d024;stroke:#f2d024;stroke-width:3.64499998"
       id="path294040" /><path
       d="m 371.63,342.13 h -2.9743 l -18.779,40.824 h 3.2076 l 17.029,-37.558 17.088,37.558 h 3.2076 z"
       style="font-variant-ligatures:none;fill:#f2d024;stroke:#f2d024;stroke-width:3.64499998"
       id="path294042" /><path
       d="m 426.34,380.27 h -28.752 l 28.11,-36.042 v -2.1 h -31.901 v 2.6827 h 27.819 l -28.169,36.042 v 2.0995 h 32.892 z"
       style="font-variant-ligatures:none;fill:#f2d024;stroke:#f2d024;stroke-width:3.64499998"
       id="path294044" /><path
       d="m 435.52,342.13 v 40.824 h 26.477 v -2.6827 h -23.5 v -38.14 z"
       style="font-variant-ligatures:none;fill:#f2d024;stroke:#f2d024;stroke-width:3.64499998"
       id="path294046" /><path
       d="m 469.69,342.13 v 40.824 h 2.9743 V 342.13 Z"
       style="font-variant-ligatures:none;fill:#f2d024;stroke:#f2d024;stroke-width:3.64499998"
       id="path294048" /><path
       d="m 494.71,344.81 v 38.15 h 2.9743 v -38.141 h 14.697 v -2.69 h -32.368 v 2.6827 z"
       style="font-variant-ligatures:none;fill:#f2d024;stroke:#f2d024;stroke-width:3.64499998"
       id="path294050" /><path
       d="m 528.08,344.81 v 38.15 h 2.9743 v -38.141 h 14.697 v -2.69 h -32.368 v 2.6827 z"
       style="font-variant-ligatures:none;fill:#f2d024;stroke:#f2d024;stroke-width:3.64499998"
       id="path294052" /><path
       d="m 575.92,344.81 v 38.15 h 2.9743 v -38.141 h 14.697 v -2.69 h -32.368 v 2.6827 z"
       style="font-variant-ligatures:none;fill:#f2d024;stroke:#f2d024;stroke-width:3.64499998"
       id="path294054" /><path
       d="m 627.33,360.91 h -26.419 v 2.6244 h 26.419 z m 0,-18.779 h -26.419 v 2.6827 h 26.419 z m -26.419,38.141 v 2.6827 h 26.419 v -2.6827 z"
       style="font-variant-ligatures:none;fill:#f2d024;stroke:#f2d024;stroke-width:3.64499998"
       id="path294056" /><path
       d="m 646.17,380.56 c 3.2076,1.8079 6.8234,2.6827 10.848,2.6827 2.916,0 5.5987,-0.46656 8.1065,-1.458 2.5078,-0.93312 4.6656,-2.3911 6.4152,-4.2574 l -1.8662,-1.9246 c -3.3242,3.2659 -7.5233,4.8989 -12.539,4.8989 -3.4409,0 -6.5318,-0.75816 -9.3312,-2.3328 -2.7994,-1.5163 -5.0155,-3.6742 -6.5902,-6.4152 -1.633,-2.741 -2.3911,-5.832 -2.3911,-9.2146 0,-3.3826 0.75816,-6.4152 2.3911,-9.1562 1.5746,-2.741 3.7908,-4.8989 6.5902,-6.4735 2.7994,-1.5163 5.8903,-2.3328 9.3312,-2.3328 5.0738,0 9.2729,1.633 12.539,4.8406 l 1.8662,-1.9246 c -1.7496,-1.8662 -3.9074,-3.2659 -6.3569,-4.199 -2.5078,-0.93312 -5.2488,-1.458 -8.1648,-1.458 -4.0241,0 -7.6399,0.93312 -10.848,2.6827 -3.2076,1.8079 -5.7154,4.2574 -7.5816,7.4066 -1.8662,3.1493 -2.741,6.7068 -2.741,10.614 0,3.9658 0.87479,7.465 2.741,10.614 1.8662,3.1493 4.374,5.657 7.5816,7.4066 z"
       style="font-variant-ligatures:none;fill:#f2d024;stroke:#f2d024;stroke-width:3.64499998"
       id="path294058" /><path
       d="m 714.8,342.13 h -2.9743 v 18.779 h -27.3 v -18.78 h -2.9743 v 40.824 h 2.9743 v -19.421 h 27.294 v 19.43 h 2.9743 z"
       style="font-variant-ligatures:none;fill:#f2d024;stroke:#f2d024;stroke-width:3.64499998"
       id="path294060" /></g></svg>