<svg xmlns="http://www.w3.org/2000/svg" xmlns:xlink="http://www.w3.org/1999/xlink" version="1.1" x="0px" y="0px" viewBox="0 0 110 137.5" enable-background="new 0 0 110 110" xml:space="preserve" fill="#F2D024"><g><path d="M104.414,93.586l-7-7c-0.781-0.781-2.047-0.781-2.828,0s-0.781,2.047,0,2.828L98.172,93H16V11.829l3.586,3.585   C19.976,15.805,20.488,16,21,16s1.024-0.195,1.414-0.586c0.781-0.781,0.781-2.047,0-2.828l-7-7c-0.78-0.781-2.048-0.781-2.828,0   l-7,7c-0.781,0.781-0.781,2.047,0,2.828c0.78,0.781,2.048,0.781,2.828,0L12,11.829V97h86.172l-3.586,3.586   c-0.781,0.781-0.781,2.047,0,2.828C94.977,103.805,95.488,104,96,104s1.023-0.195,1.414-0.586l7-7   C105.195,95.633,105.195,94.367,104.414,93.586z"/><path d="M23,78c-1.104,0-2,0.896-2,2s0.896,2,2,2h3v3c0,1.104,0.896,2,2,2s2-0.896,2-2v-3h3c1.104,0,2-0.896,2-2s-0.896-2-2-2h-3   v-3c0-1.104-0.896-2-2-2s-2,0.896-2,2v3H23z"/><path d="M43.5,52h3v3c0,1.104,0.896,2,2,2s2-0.896,2-2v-3h3c1.104,0,2-0.896,2-2s-0.896-2-2-2h-3v-3c0-1.104-0.896-2-2-2   s-2,0.896-2,2v3h-3c-1.104,0-2,0.896-2,2S42.396,52,43.5,52z"/><path d="M67,41h3v3c0,1.104,0.896,2,2,2s2-0.896,2-2v-3h3c1.104,0,2-0.896,2-2s-0.896-2-2-2h-3v-3c0-1.104-0.896-2-2-2   s-2,0.896-2,2v3h-3c-1.104,0-2,0.896-2,2S65.896,41,67,41z"/><path d="M78,22h3v3c0,1.104,0.896,2,2,2s2-0.896,2-2v-3h3c1.104,0,2-0.896,2-2s-0.896-2-2-2h-3v-3c0-1.104-0.896-2-2-2   s-2,0.896-2,2v3h-3c-1.104,0-2,0.896-2,2S76.896,22,78,22z"/><path d="M52,68v-3c0-1.104-0.896-2-2-2s-2,0.896-2,2v3h-3c-1.104,0-2,0.896-2,2s0.896,2,2,2h3v3c0,1.104,0.896,2,2,2s2-0.896,2-2   v-3h3c1.104,0,2-0.896,2-2s-0.896-2-2-2H52z"/></g></svg>