<svg xmlns="http://www.w3.org/2000/svg" viewBox="0 0 48 60" x="0px" y="0px" fill="#F2D024"><g><path d="M43.9766,33.7832A1.0013,1.0013,0,0,0,43,33H38.8025l-1.8259-8.2168A1.0013,1.0013,0,0,0,36,24H31.8025l-1.8259-8.2168A1.0013,1.0013,0,0,0,29,15H19a1.0014,1.0014,0,0,0-.9766.7832L16.1975,24H12a1.0014,1.0014,0,0,0-.9766.7832L9.1975,33H5a1.0014,1.0014,0,0,0-.9766.7832l-2,9A1,1,0,0,0,3,44H45a1,1,0,0,0,.9766-1.2168ZM36.7529,33H25.2471l1.5547-7h8.3964Zm-5,2L31,38.3887,30.2469,35ZM24,29.3887,23.2469,26h1.5062ZM19.8018,17h8.3964l1.5547,7H18.2471Zm-7,9h8.3964l1.5547,7H11.2471Zm4.9513,9L17,38.3887,16.2469,35ZM4.2471,42l1.5547-7h8.3964l1.5547,7Zm14,0,1.5547-7h8.3964l1.5547,7Zm14,0,1.5547-7h8.3964l1.5547,7Z"/><path d="M24,11a1,1,0,0,0,1-1V5a1,1,0,0,0-2,0v5A1,1,0,0,0,24,11Z"/><path d="M33.1924,14.8076a.9964.9964,0,0,0,.707-.293l2.8281-2.8286a1,1,0,1,0-1.414-1.414l-2.8281,2.8286a1,1,0,0,0,.707,1.707Z"/><path d="M14.1006,14.5146a1,1,0,1,0,1.414-1.414L12.6865,10.272a1,1,0,0,0-1.414,1.414Z"/></g></svg>