<svg xmlns="http://www.w3.org/2000/svg" xmlns:xlink="http://www.w3.org/1999/xlink" version="1.1" x="0px" y="0px" viewBox="0 0 412 540" enable-background="new 0 0 512 512" xml:space="preserve" fill="#F2D024"><g><path d="M373.629,240.942H60.594c-5.104,0-9.242,4.138-9.242,9.242v137.442c0,5.104,4.138,9.242,9.242,9.242h313.035   c5.104,0,9.242-4.138,9.242-9.242V250.184C382.871,245.08,378.733,240.942,373.629,240.942z M367.389,360.594   c-13.105,0-23.73,10.415-23.73,23.264H90.566c0-12.849-10.625-23.264-23.731-23.264v-83.378c13.106,0,23.731-10.415,23.731-23.264   h253.093c0,12.849,10.625,23.264,23.73,23.264V360.594z"/><path d="M219.435,323.84v9.924c3.122-0.48,4.683-2.041,4.683-4.684C224.118,326.94,222.557,325.194,219.435,323.84z"/><path d="M210.102,307.138c0,2.249,1.517,4.126,4.552,5.634v-10.383C211.619,302.936,210.102,304.518,210.102,307.138z"/><path d="M217.112,279.775c-22.045,0-39.917,17.519-39.917,39.129c0,21.611,17.872,39.13,39.917,39.13   c22.045,0,39.916-17.519,39.916-39.13C257.028,297.294,239.157,279.775,217.112,279.775z M229.359,337.383   c-2.315,2.215-5.622,3.564-9.923,4.044v6.055c0,0.581-0.471,1.052-1.052,1.052h-2.677c-0.581,0-1.052-0.471-1.052-1.052v-5.858   c-4.092-0.02-7.923-0.877-11.494-2.572c-0.546-0.26-0.886-0.824-0.886-1.429v-5.89c0-0.908,0.967-1.469,1.763-1.029   c1.069,0.59,2.37,1.152,3.903,1.685c2.511,0.874,4.749,1.376,6.714,1.507v-11.922c-5.109-1.898-8.597-3.957-10.463-6.172   c-1.686-2.001-2.61-4.398-2.774-7.191c-0.207-3.531,0.979-6.971,3.443-9.508c2.442-2.516,5.707-3.975,9.794-4.376v-5.039   c0-0.581,0.471-1.052,1.052-1.052h2.677c0.581,0,1.052,0.471,1.052,1.052v4.908c4,0.19,7.12,0.774,9.359,1.755   c0.582,0.254,0.957,0.823,0.957,1.459v5.861c0,0.879-0.92,1.445-1.707,1.053c-2.614-1.303-5.484-2.125-8.609-2.465v12.412   c4.781,1.725,8.209,3.695,10.284,5.912c2.074,2.216,3.111,4.896,3.111,8.039C232.83,332.246,231.673,335.166,229.359,337.383z"/><ellipse cx="295.344" cy="318.905" rx="11.415" ry="11.19"/><ellipse cx="138.88" cy="318.905" rx="11.416" ry="11.19"/></g><g><path d="M451.953,211.244c-3.203,3.199-6.736,5.335-10.576,6.485c16.533-29.256,9.979-63.897-0.542-94.988   c-1.899-5.61-9.411-4.308-9.978,1.351c-2.063,20.567-12.044,38.278-28.053,50.659c-1.42-11.325-5.775-21.045-13.412-30.398   c-2.778-3.404-8.896-0.606-8.672,3.592c1.279,23.893-25.385,31.91-40.484,44.671c-8.454,7.146-13.661,15.853-16.27,25.827   c-1.064,4.068,2.021,8.056,6.227,8.056h57.955c5.104,0,9.242,4.138,9.242,9.242v55.957c0,3.914,3.488,7.016,7.346,6.354   c12.639-2.168,24.738-7.911,33.846-16.889c17.793-17.54,15.654-42.516,21.861-64.976   C461.854,211.081,455.637,207.989,451.953,211.244z"/></g></svg>