<svg xmlns="http://www.w3.org/2000/svg" viewBox="0 0 64 80" x="0px" y="0px"><title>finance2</title><g data-name="Layer 4"><path d="M8,33.2H9.5a.75.75,0,0,0,0-1.5H8a.75.75,0,0,0,0,1.5Z"/><path d="M18.5,31.7a.75.75,0,0,0,0,1.5h3a.75.75,0,0,0,0-1.5Z"/><path d="M42.5,31.7a.75.75,0,0,0,0,1.5h3a.75.75,0,0,0,0-1.5Z"/><path d="M30.5,31.7a.75.75,0,0,0,0,1.5h3a.75.75,0,0,0,0-1.5Z"/><path d="M56,31.7H54.5a.75.75,0,0,0,0,1.5H56a.75.75,0,0,0,0-1.5Z"/><path d="M8,29.26H9.76a.75.75,0,0,0,.7-.49l2.32-6.27.94,9.2H12.5a.75.75,0,0,0,0,1.5h1.38l1.37,13.38a.75.75,0,0,0,1.45.18L19,40.41,21.2,51.17a.75.75,0,0,0,.74.6h0a.75.75,0,0,0,.72-.64L25.25,33.2H27.5a.75.75,0,0,0,0-1.5h-2l1.41-9.82,2.44,5.46a.75.75,0,0,0,1.42-.18l2.19-12.46,2.89,17.43A.73.73,0,0,0,36,33l2.8,16.87a.75.75,0,0,0,1.43.17L44,41.23l3.33,7.48a.75.75,0,0,0,1.43-.21l1.93-15.3h.82a.75.75,0,0,0,0-1.5h-.64l1.08-8.56,3.41,5.75a.75.75,0,0,0,1.29-.76l-4.52-7.63a.75.75,0,0,0-1.39.29L49.35,31.7H48.5a.75.75,0,0,0,0,1.5h.66L47.59,45.65l-2.93-6.59a.74.74,0,0,0-.69-.45.75.75,0,0,0-.68.45l-3.46,8L37.52,33.2h2a.75.75,0,0,0,0-1.5H37.27L33.69,10.14A.75.75,0,0,0,33,9.51h0a.75.75,0,0,0-.74.62L29.69,24.5l-2.5-5.6a.75.75,0,0,0-1.43.2L23.9,32a.73.73,0,0,0-.15.43.74.74,0,0,0,.05.26l-2,13.89L20,37.51a.75.75,0,0,0-.68-.6.76.76,0,0,0-.76.49l-2.13,5.8-1-10h.11a.75.75,0,0,0,0-1.5h-.26L13.95,19.13a.75.75,0,0,0-1.45-.18L9.24,27.76H8a.75.75,0,0,0,0,1.5Z"/><path d="M8,54.49H56A.75.75,0,0,0,56,53H8a.75.75,0,0,0,0,1.5Z"/></g><text x="0" y="79" fill="#000000" font-size="5px" font-weight="bold" font-family="'Helvetica Neue', Helvetica, Arial-Unicode, Arial, Sans-serif">Created by fukin</text><text x="0" y="84" fill="#000000" font-size="5px" font-weight="bold" font-family="'Helvetica Neue', Helvetica, Arial-Unicode, Arial, Sans-serif">from the Noun Project</text></svg>