<?xml version="1.0" encoding="UTF-8" standalone="no"?>
<svg
   xmlns:dc="http://purl.org/dc/elements/1.1/"
   xmlns:cc="http://creativecommons.org/ns#"
   xmlns:rdf="http://www.w3.org/1999/02/22-rdf-syntax-ns#"
   xmlns:svg="http://www.w3.org/2000/svg"
   xmlns="http://www.w3.org/2000/svg"
   id="svg14"
   xml:space="preserve"
      viewBox="230 330 580 100"

   y="0px"
   x="0px"
   version="1.1"><metadata
     id="metadata20"><rdf:RDF><cc:Work
         rdf:about=""><dc:format>image/svg+xml</dc:format><dc:type
           rdf:resource="http://purl.org/dc/dcmitype/StillImage" /></cc:Work></rdf:RDF></metadata><defs
     id="defs18" /><g
     style="fill:#f2d024"
     transform="translate(5e-6,-1.3885)"
     id="logo-group"><path
       stroke-miterlimit="2"
       d="m 277.83,365.69 h -5.346 c -0.594,0 -1.134,0.486 -1.134,1.134 v 13.932 h -30.132 v -13.932 c 0,-0.648 -0.486,-1.134 -1.134,-1.134 h -5.346 c -0.594,0 -1.134,0.486 -1.134,1.134 v 35.532 c 0,0.594 0.54,1.134 1.134,1.134 h 5.346 c 0.648,0 1.134,-0.54 1.134,-1.134 v -13.932 h 30.132 v 13.932 c 0,0.594 0.54,1.134 1.134,1.134 h 5.346 c 0.648,0 1.188,-0.54 1.188,-1.134 v -35.532 c 0,-0.648 -0.54,-1.134 -1.188,-1.134 z"
       style="font-variant-ligatures:normal;stroke-width:0;stroke-miterlimit:2"
       id="path39763" /><path
       stroke-miterlimit="2"
       d="m 379.97,395.87 h -35.91 l 34.884,-17.28 c 2.97,-1.458 4.428,-4.644 3.564,-7.884 -0.81,-3.024 -3.618,-5.022 -6.75,-5.022 h -39.204 c -0.64801,0 -1.188,0.486 -1.188,1.134 v 5.346 c 0,0.648 0.53999,1.134 1.188,1.134 h 35.856 l -34.884,17.28 c -2.97,1.458 -4.374,4.644 -3.51,7.884 0.756,3.024 3.618,5.022 6.75,5.022 h 39.204 c 0.648,0 1.134,-0.54 1.134,-1.134 v -5.346 c 0,-0.648 -0.486,-1.134 -1.134,-1.134 z"
       style="font-variant-ligatures:normal;stroke-width:0;stroke-miterlimit:2"
       id="path39767" /><path
       stroke-miterlimit="2"
       d="m 431.9,395.87 h -26.406 c -2.916,0 -5.346,-2.43 -5.346,-5.346 v -23.706 c 0,-0.594 -0.486,-1.134 -1.134,-1.134 h -5.346 c -0.594,0 -1.134,0.54 -1.134,1.134 v 23.706 c 0,7.128 5.832,12.96 12.96,12.96 H 431.9 c 0.648,0 1.134,-0.486 1.134,-1.134 v -5.346 c 0,-0.648 -0.486,-1.134 -1.134,-1.134 z"
       style="font-variant-ligatures:normal;stroke-width:0;stroke-miterlimit:2"
       id="path39769" /><path
       stroke-miterlimit="2"
       d="m 448.81,365.69 h -5.346 c -0.594,0 -1.134,0.486 -1.134,1.134 v 35.532 c 0,0.594 0.54,1.134 1.134,1.134 h 5.346 c 0.648,0 1.134,-0.54 1.134,-1.134 v -35.532 c 0,-0.648 -0.486,-1.134 -1.134,-1.134 z"
       style="font-variant-ligatures:normal;stroke-width:0;stroke-miterlimit:2"
       id="path39771" /><path
       stroke-miterlimit="2"
       d="m 503.8,365.69 h -43.47 c -0.594,0 -1.134,0.486 -1.134,1.134 v 5.346 c 0,0.648 0.54,1.134 1.134,1.134 h 17.928 v 29.052 c 0,0.594 0.486,1.134 1.134,1.134 h 5.346 c 0.648,0 1.134,-0.54 1.134,-1.134 V 373.304 H 503.8 c 0.59399,0 1.134,-0.486 1.134,-1.134 v -5.346 c 0,-0.648 -0.54,-1.134 -1.134,-1.134 z"
       style="font-variant-ligatures:normal;stroke-width:0;stroke-miterlimit:2"
       id="path39773" /><path
       stroke-miterlimit="2"
       d="m 555.53,365.69 h -43.47 c -0.594,0 -1.134,0.486 -1.134,1.134 v 5.346 c 0,0.648 0.54,1.134 1.134,1.134 h 17.928 v 29.052 c 0,0.594 0.48601,1.134 1.134,1.134 h 5.346 c 0.64801,0 1.134,-0.54 1.134,-1.134 v -29.052 h 17.928 c 0.59399,0 1.134,-0.486 1.134,-1.134 v -5.346 c 0,-0.648 -0.54,-1.134 -1.134,-1.134 z"
       style="font-variant-ligatures:normal;stroke-width:0;stroke-miterlimit:2"
       id="path39775" /><path
       stroke-miterlimit="2"
       d="m 621.45,365.69 h -29.214 c -0.59401,0 -1.134,0.54 -1.134,1.134 v 5.346 c 0,0.648 0.54,1.134 1.134,1.134 h 29.214 c 4.104,0 7.398,3.348 7.398,7.452 v 7.668 c 0,4.104 -3.294,7.452 -7.398,7.452 h -22.734 v -13.77 c 0,-0.648 -0.48601,-1.134 -1.134,-1.134 h -5.346 c -0.59401,0 -1.134,0.486 -1.134,1.134 v 20.25 c 0,0.594 0.54,1.134 1.134,1.134 h 29.214 c 8.316,0 15.066,-6.75 15.066,-15.066 v -7.668 c 0,-8.316 -6.75,-15.066 -15.066,-15.066 z"
       style="font-variant-ligatures:normal;stroke-width:0;stroke-miterlimit:2"
       id="path39777" /><path
       stroke-miterlimit="2"
       d="m 693.86,401.81 -16.254,-31.374 c -1.674,-3.24 -4.806,-5.562 -8.424,-5.886 -4.32,-0.378 -8.262,1.836 -10.206,5.616 L 642.56,401.81 c -0.378,0.756 0.16199,1.674 1.026,1.674 h 6.048 c 0.432,0 0.81,-0.216 1.026,-0.594 l 15.066,-29.214 c 0.702,-1.35 1.998,-1.512 2.484,-1.512 0.486,0 1.782,0.162 2.484,1.512 l 15.066,29.214 c 0.216,0.378 0.594,0.594 1.026,0.594 h 6.048 c 0.86401,0 1.404,-0.918 1.026,-1.674 z"
       style="font-variant-ligatures:normal;stroke-width:0;stroke-miterlimit:2"
       id="path39779" /><path
       stroke-miterlimit="2"
       d="M 738.17,365.69 H 694.7 c -0.59401,0 -1.134,0.486 -1.134,1.134 v 5.346 c 0,0.648 0.54,1.134 1.134,1.134 h 17.928 v 29.052 c 0,0.594 0.486,1.134 1.134,1.134 h 5.346 c 0.64801,0 1.134,-0.54 1.134,-1.134 v -29.052 h 17.928 c 0.594,0 1.134,-0.486 1.134,-1.134 v -5.346 c 0,-0.648 -0.54,-1.134 -1.134,-1.134 z"
       style="font-variant-ligatures:normal;stroke-width:0;stroke-miterlimit:2"
       id="path39781" /><path
       stroke-miterlimit="2"
       d="m 790.27,401.81 -16.254,-31.374 c -1.674,-3.24 -4.806,-5.562 -8.424,-5.886 -4.32,-0.378 -8.262,1.836 -10.206,5.616 L 738.97,401.81 c -0.378,0.756 0.162,1.674 1.026,1.674 h 6.048 c 0.432,0 0.81,-0.216 1.026,-0.594 l 15.066,-29.214 c 0.702,-1.35 1.998,-1.512 2.484,-1.512 0.486,0 1.782,0.162 2.484,1.512 l 15.066,29.214 c 0.216,0.378 0.594,0.594 1.026,0.594 h 6.048 c 0.864,0 1.404,-0.918 1.026,-1.674 z"
       style="font-variant-ligatures:normal;stroke-width:0;stroke-miterlimit:2"
       id="path39783" /><path
       style="stroke-width:0.20513999"
       d="m 286.64,365.21 h -1.0265 v 41.06 h 41.06 v -2.053 h -39.007 V 365.21 Z m 17.447,6.1485 -2.0472,-2.0462 -2.053,4.105 -2.0532,4.105 -2.0538,2.053 -2.0538,2.053 -2.053,-2.053 -2.053,-2.053 v 24.641 h 36.953 v -20.534 l -2.0502,-2.0502 -2.0501,-2.0501 h -4.1109 l -2.0485,4.0974 c -1.1266,2.2536 -2.0507,4.0998 -2.0534,4.1027 -0.003,0.003 -0.92898,-0.91849 -2.0583,-2.0473 l -2.0534,-2.0526 -2.0575,-4.1117 -2.0575,-4.1115 z"
       id="icon" /></g></svg>